<?xml version="1.0" encoding="UTF-8"?>
<svg id="Layer_2" data-name="Layer 2" xmlns="http://www.w3.org/2000/svg" xmlns:xlink="http://www.w3.org/1999/xlink" viewBox="0 0 119.39 25.2">
  <defs>
    <style>
      .cls-1 {
        fill: url(#linear-gradient);
      }

      .cls-2 {
        fill: #fff;
      }
    </style>
    <linearGradient id="linear-gradient" x1="69.45" y1="22.37" x2="117.02" y2="22.37" gradientUnits="userSpaceOnUse">
      <stop offset=".02" stop-color="#4b8fb8"/>
      <stop offset=".27" stop-color="#71aec1"/>
      <stop offset=".6" stop-color="#9cd1cc"/>
      <stop offset=".85" stop-color="#b7e7d3"/>
      <stop offset="1" stop-color="#c1f0d6"/>
    </linearGradient>
  </defs>
  <g id="Layer_1-2" data-name="Layer 1">
    <g>
      <g>
        <path class="cls-2" d="m5.72,2.63c.22-.79.32-1.65-.79-1.65h-1.16c-.12,0-.15-.12-.12-.25l.12-.47c.05-.17.1-.2.34-.2s4.63-.07,5.15-.07c2.34,0,3.69.17,4.88,1.16,1.08.91,1.48,1.67,1.48,3.35,0,2.49-2.12,5.22-7.09,5.22-1.08,0-2.12-.17-2.49-.29l-1.21,4.51c-.25.94-.2,1.8.79,1.8h.94c.17,0,.22.1.2.25l-.07.47c-.03.15-.07.2-.3.2-.3,0-1.31-.07-3.28-.07-1.67,0-2.56.07-2.91.07-.15,0-.22-.07-.2-.25l.05-.42c.02-.15.1-.25.27-.25h.52c1.33,0,1.67-.91,1.95-1.97L5.72,2.63Zm.49,5.91c.39.27,1.08.39,2.09.39,3.69,0,5.15-2.56,5.15-4.63,0-2.93-2.51-3.52-4.19-3.52-.27,0-.79,0-.96.05l-2.09,7.71Z"/>
        <path class="cls-2" d="m23.89,6.33c.1,0,.12.12.07.22-.47,1.01-1.72,4.41-1.85,4.8-.15.42-1.18,3.47-1.18,3.69s.12.3.27.3c.29,0,1.55-1.28,1.72-1.5.07-.07.15-.12.2-.05l.22.25c.07.07.1.12.05.2-.27.49-2.41,2.59-3.82,2.59-.29,0-.52-.1-.52-.42,0-.37.25-1.13,1.18-3.74l-.12-.05c-1.03,1.58-3.52,4.21-5.27,4.21-.57,0-1.33-.47-1.33-1.58,0-3.6,4.04-8.92,7.04-8.92,1.03,0,1.5.44,1.75.84l.47-.66c.07-.1.15-.17.25-.17h.86Zm-3.1,4.29c.34-.71.59-1.33.59-2.04,0-.67-.25-1.45-1.16-1.45-2.27,0-4.9,5.2-4.9,7.54,0,.57.25.86.67.86,1.23,0,4.36-3.99,4.8-4.9Z"/>
        <path class="cls-2" d="m27.81,7.91h-1.72c-.15,0-.2-.05-.15-.2l.2-.54c.05-.12.12-.17.27-.17h1.77l1.28-2.86c.12-.25.2-.3.39-.37.27-.07.91-.32,1.11-.42.15-.07.27-.15.37-.15.15,0,.2.15.03.49l-1.63,3.3h2.51c.12,0,.17.07.1.27l-.22.52c-.02.07-.12.12-.22.12h-2.51l-2.39,5.54c-.3.69-.57,1.31-.57,1.58s.1.42.32.42c.71,0,2.31-1.4,2.46-1.58.07-.1.15-.07.22,0l.27.3c.07.07.07.12.02.22-.32.39-2.61,2.44-4.51,2.44-.62,0-.79-.25-.79-.59,0-.37.12-.79.27-1.16l3.1-7.17Z"/>
        <path class="cls-2" d="m32.49,16.21c0-.57.42-1.7,1.45-4.46l.71-1.92c.25-.67.44-1.16.44-1.45,0-.22-.15-.32-.34-.32-.42,0-1.58,1.33-1.97,1.72-.1.1-.2.1-.27.02l-.2-.22c-.1-.07-.15-.12-.07-.22.1-.15,2.61-3.1,4.19-3.03.3,0,.59.2.59.62,0,.44-.39,1.55-.84,2.73l-1.43,3.74c-.35.91-.44,1.45-.44,1.62,0,.22.07.37.27.42.52-.1,1.85-1.5,1.97-1.72.05-.07.15-.07.27.05l.2.17c.1.12.12.17.05.29-.15.2-2.12,2.56-4.16,2.56-.25-.02-.42-.22-.42-.62Zm3.1-14.36c0-.67.52-1.23,1.28-1.23.86,0,1.31.62,1.31,1.18,0,.37-.3,1.23-1.31,1.23-1.08,0-1.28-.91-1.28-1.18Z"/>
        <path class="cls-2" d="m38.3,14.41c0-2.07,1.35-4.66,3.15-6.43.79-.79,2.12-1.65,3.3-1.65.96,0,1.4.71,1.4,1.31,0,1.21-.91,2.49-2.29,3.2-1.33.67-2.66.94-3.57,1.01-.12.3-.32,1.11-.32,2.27s.81,1.55,1.28,1.55c1.21,0,2.29-.91,2.81-1.75.05-.07.12-.12.22-.02l.27.22c.12.07.12.15.02.22-.62.86-2.09,2.49-3.99,2.49-1.6,0-2.29-.79-2.29-2.41Zm2.19-3.28c.86.07,4.09-.96,4.09-2.78,0-.49-.25-.94-.79-.94-1.58,0-3.1,2.83-3.3,3.72Z"/>
        <path class="cls-2" d="m47.09,16.57c-.27,0-.32-.05-.27-.22l1.75-4.56c.59-1.53,1.28-3.3,1.28-3.72,0-.25-.1-.42-.37-.42-.47,0-1.65,1.18-2.07,1.65-.07.07-.15.07-.25-.02l-.22-.22c-.1-.1-.12-.15-.05-.25.37-.44,2.19-2.49,3.96-2.49.57,0,.79.42.79.74,0,.76-1.06,3.1-1.26,3.67l.1.05c.74-1.18,3.42-4.46,5.62-4.46.74,0,1.23.37,1.23,1.01,0,1.08-.57,2.36-1.38,4.36-.67,1.62-1.26,3-1.26,3.4,0,.15.1.32.3.32.37,0,1.45-.91,1.77-1.26.1-.07.2-.05.27.05l.17.2c.1.1.12.15.02.27-.3.39-2.29,2.14-3.94,2.14-.32,0-.59-.12-.59-.49,0-.47.89-2.41,1.65-4.53.34-.96,1.23-3,1.23-3.55,0-.34-.17-.57-.62-.57-.96,0-3.4,2.27-4.48,4.01-.44.71-.84,1.35-1.48,3.08l-.62,1.65c-.05.1-.1.15-.34.15h-.96Z"/>
        <path class="cls-2" d="m62.01,7.91h-1.72c-.15,0-.2-.05-.15-.2l.2-.54c.05-.12.12-.17.27-.17h1.77l1.28-2.86c.12-.25.2-.3.39-.37.27-.07.91-.32,1.11-.42.15-.07.27-.15.37-.15.15,0,.2.15.03.49l-1.63,3.3h2.51c.12,0,.17.07.1.27l-.22.52c-.02.07-.12.12-.22.12h-2.51l-2.39,5.54c-.3.69-.57,1.31-.57,1.58s.1.42.32.42c.71,0,2.31-1.4,2.46-1.58.07-.1.15-.07.22,0l.27.3c.07.07.07.12.02.22-.32.39-2.61,2.44-4.51,2.44-.62,0-.79-.25-.79-.59,0-.37.12-.79.27-1.16l3.1-7.17Z"/>
        <path class="cls-2" d="m76.32,2.36c.25-.76.17-1.45-1.43-1.45h-.94c-.15,0-.25-.1-.2-.3l.1-.37c.05-.17.07-.25.27-.25.32,0,1.3.07,4.24.07.37,0,.39.37.52.64l5.29,11.82c.2.42.27.42.62-.57l3.23-9.63c.32-.94,0-1.43-.79-1.43h-.86c-.22,0-.29-.07-.27-.27l.07-.44c.03-.12.07-.2.25-.2.29,0,1.06.07,2.81.07,1.28,0,1.77-.07,2.12-.07.2,0,.27.12.22.32l-.07.39c-.02.17-.07.2-.22.2h-.62c-.62,0-.94.17-1.35,1.35l-4.78,13.67c-.27.81-.71.79-1.01.15l-5.86-13.08c-.15-.32-.34-.32-.44.03l-3.15,10.42c-.44,1.48-.27,2.29.84,2.29h.96c.17,0,.25.1.22.25l-.07.47c-.05.15-.07.2-.29.2-.25,0-1.31-.07-3.1-.07-1.7,0-2.51.07-2.76.07-.15,0-.22-.1-.2-.27l.07-.44c.03-.12.07-.2.22-.2h.67c1.21,0,1.72-.69,2.32-2.54l3.4-10.84Z"/>
        <path class="cls-2" d="m88.93,13.64c0-3.1,2.34-7.31,5.62-7.31,1.65,0,2.64,1.21,2.64,2.88,0,2.71-2.14,7.61-5.71,7.61-1.35,0-2.54-1.3-2.54-3.18Zm7.27-4.8c.02-.76-.42-1.38-1.23-1.38-1.03,0-2.34.94-3.57,2.93-.84,1.33-1.43,2.83-1.43,3.99,0,.79.54,1.26,1.13,1.26,2.56,0,5.1-5.17,5.1-6.8Z"/>
        <path class="cls-2" d="m101.34,7.91h-1.72c-.15,0-.2-.05-.15-.2l.2-.54c.05-.12.12-.17.27-.17h1.77l1.28-2.86c.12-.25.2-.3.39-.37.27-.07.91-.32,1.11-.42.15-.07.27-.15.37-.15.15,0,.2.15.03.49l-1.63,3.3h2.51c.12,0,.17.07.1.27l-.22.52c-.02.07-.12.12-.22.12h-2.51l-2.39,5.54c-.3.69-.57,1.31-.57,1.58s.1.42.32.42c.71,0,2.31-1.4,2.46-1.58.07-.1.15-.07.22,0l.27.3c.07.07.07.12.02.22-.32.39-2.61,2.44-4.51,2.44-.62,0-.79-.25-.79-.59,0-.37.12-.79.27-1.16l3.1-7.17Z"/>
        <path class="cls-2" d="m104.88,14.41c0-2.07,1.35-4.66,3.15-6.43.79-.79,2.12-1.65,3.3-1.65.96,0,1.4.71,1.4,1.31,0,1.21-.91,2.49-2.29,3.2-1.33.67-2.66.94-3.57,1.01-.12.3-.32,1.11-.32,2.27s.81,1.55,1.28,1.55c1.21,0,2.29-.91,2.81-1.75.05-.07.12-.12.22-.02l.27.22c.12.07.12.15.02.22-.62.86-2.09,2.49-3.99,2.49-1.6,0-2.29-.79-2.29-2.41Zm2.19-3.28c.86.07,4.09-.96,4.09-2.78,0-.49-.25-.94-.79-.94-1.58,0-3.1,2.83-3.3,3.72Z"/>
        <path class="cls-2" d="m112.2,15.44c0-.34.32-.81.84-.81s.86.37,1.01.79c.15.42.27.69.89.69.71,0,1.38-.64,1.38-1.5,0-1.06-.74-2.07-1.06-2.86-.17-.42-.74-1.28-.71-2.41,0-1.43,1.35-3,3.1-3,.74,0,1.75.3,1.75,1.26,0,.44-.39.79-.76.79-.3,0-.67-.17-.84-.59-.12-.3-.15-.69-.64-.69s-1.21.67-1.21,1.55.74,1.95.89,2.29c.15.3.94,1.5.94,2.81,0,1.92-1.55,3.08-3.25,3.08-1.43,0-2.31-.57-2.31-1.38Z"/>
      </g>
      <path class="cls-1" d="m69.7,25.17c15.25-4.41,31.42-5.41,47.11-2.95.87.14,1.24-1.19.37-1.33-15.94-2.5-32.34-1.53-47.84,2.95-.85.25-.49,1.57.37,1.33h0Z"/>
    </g>
  </g>
</svg>